<svg width="25" height="28" viewBox="0 0 25 28" fill="none" xmlns="http://www.w3.org/2000/svg">
<path d="M1 24.1111V5.62222C1 4.0043 1 3.19532 1.31336 2.57736C1.58899 2.03377 2.0288 1.59183 2.56978 1.31487C3.18477 1 3.98986 1 5.6 1H19.4C21.0101 1 21.8153 1 22.4303 1.31487C22.9712 1.59183 23.4111 2.03377 23.6866 2.57736C24 3.19532 24 4.0043 24 5.62222V21.2222H3.875C2.28718 21.2222 1 22.5156 1 24.1111ZM1 24.1111C1 25.7066 2.28718 27 3.875 27H24M8.1875 6.77778H16.8125M8.1875 12.5556H16.8125M22.5625 21.2222V27" stroke="white" stroke-width="2" stroke-linecap="round" stroke-linejoin="round"/>
</svg>
