<svg width="27" height="27" viewBox="0 0 27 27" fill="none" xmlns="http://www.w3.org/2000/svg">
<path d="M24.6486 1H2.35135C1.605 1 1 1.605 1 2.35135V24.6486C1 25.395 1.605 26 2.35135 26H24.6486C25.395 26 26 25.395 26 24.6486V2.35135C26 1.605 25.395 1 24.6486 1Z" stroke="white" stroke-width="1.3" stroke-linecap="round" stroke-linejoin="round"/>
<path d="M11.0493 5.05438H22.1993V8.43276H11.0493V5.05438Z" stroke="white" stroke-width="1.3" stroke-linecap="round" stroke-linejoin="round"/>
<path d="M11.0493 11.8108H22.1993V15.1892H11.0493V11.8108Z" stroke="white" stroke-width="1.3" stroke-linecap="round" stroke-linejoin="round"/>
<path d="M11.0493 18.5672H22.1993V21.9456H11.0493V18.5672Z" stroke="white" stroke-width="1.3" stroke-linecap="round" stroke-linejoin="round"/>
<path d="M8.17916 5.05438H4.80078V8.43276H8.17916V5.05438Z" stroke="white" stroke-width="1.3" stroke-linecap="round" stroke-linejoin="round"/>
<path d="M8.17916 11.8108H4.80078V15.1892H8.17916V11.8108Z" stroke="white" stroke-width="1.3" stroke-linecap="round" stroke-linejoin="round"/>
<path d="M8.17916 18.5672H4.80078V21.9456H8.17916V18.5672Z" stroke="white" stroke-width="1.3" stroke-linecap="round" stroke-linejoin="round"/>
</svg>
