<svg width="27" height="25" viewBox="0 0 27 25" fill="none" xmlns="http://www.w3.org/2000/svg">
<path fill-rule="evenodd" clip-rule="evenodd" d="M25.3125 20L19.4062 15.8333V5.83333L25.3125 1.66667V20ZM17.7188 15H15.1875V6.66667H17.7188V15ZM13.5 15H6.75C5.07262 15 1.6875 14.515 1.6875 10.8333C1.6875 7.15167 5.01694 6.6125 6.75 6.66667H13.5V15ZM9.28125 22.5C9.28125 22.9608 8.90325 23.3333 8.4375 23.3333H7.59375C7.128 23.3333 6.75 22.9608 6.75 22.5V16.6667H9.28125V22.5ZM25.3125 0L17.7188 5H6.75C3.02231 5 0 7.15167 0 10.8333C0 13.9442 2.14481 16.1158 5.0625 16.6667C5.10047 16.8917 5.0625 23.3333 5.0625 23.3333C5.0625 24.2533 5.8185 25 6.75 25H9.28125C10.2127 25 10.9688 24.2533 10.9688 23.3333V16.6667H17.7188L25.3125 21.6667C26.244 21.6667 27 20.92 27 20V1.66667C27 0.746667 26.244 0 25.3125 0Z" fill="white"/>
</svg>
